<mxfile modified="2023-07-09T02:58:34.879Z" host="app.diagrams.net" agent="Mozilla/5.0 (Macintosh; Intel Mac OS X 10_15_7) AppleWebKit/537.36 (KHTML, like Gecko) Chrome/114.0.0.0 Safari/537.36" etag="VCQXUlSTw19dxUVvzmnb" version="21.5.2" type="github">
  <diagram id="Ht1M8jgEwFfnCIfOTk4-" name="Page-1">
    <mxGraphModel dx="1509" dy="1639" grid="0" gridSize="10" guides="1" tooltips="1" connect="1" arrows="1" fold="1" page="1" pageScale="1" pageWidth="1169" pageHeight="827" background="#ffffff" math="0" shadow="0">
      <root>
        <mxCell id="0" />
        <mxCell id="1" parent="0" />
        <mxCell id="mW19Jw8WPf5lLDW3gT5k-19" value="Private subnet" style="points=[[0,0],[0.25,0],[0.5,0],[0.75,0],[1,0],[1,0.25],[1,0.5],[1,0.75],[1,1],[0.75,1],[0.5,1],[0.25,1],[0,1],[0,0.75],[0,0.5],[0,0.25]];outlineConnect=0;gradientColor=none;html=1;whiteSpace=wrap;fontSize=12;fontStyle=0;container=1;pointerEvents=0;collapsible=0;recursiveResize=0;shape=mxgraph.aws4.group;grIcon=mxgraph.aws4.group_security_group;grStroke=0;strokeColor=#147EBA;fillColor=#E6F2F8;verticalAlign=top;align=left;spacingLeft=30;fontColor=#147EBA;dashed=0;" parent="1" vertex="1">
          <mxGeometry x="316" y="-322" width="181" height="169" as="geometry" />
        </mxCell>
        <mxCell id="mW19Jw8WPf5lLDW3gT5k-4" value="AZ-1a" style="fillColor=none;strokeColor=#147EBA;dashed=1;verticalAlign=top;fontStyle=0;fontColor=#147EBA;whiteSpace=wrap;html=1;movable=0;resizable=0;rotatable=0;deletable=0;editable=0;locked=1;connectable=0;" parent="1" vertex="1">
          <mxGeometry x="278" y="-606" width="257" height="510" as="geometry" />
        </mxCell>
        <mxCell id="UEzPUAAOIrF-is8g5C7q-175" value="AWS Cloud" style="points=[[0,0],[0.25,0],[0.5,0],[0.75,0],[1,0],[1,0.25],[1,0.5],[1,0.75],[1,1],[0.75,1],[0.5,1],[0.25,1],[0,1],[0,0.75],[0,0.5],[0,0.25]];outlineConnect=0;gradientColor=none;html=1;whiteSpace=wrap;fontSize=12;fontStyle=0;shape=mxgraph.aws4.group;grIcon=mxgraph.aws4.group_aws_cloud_alt;strokeColor=#232F3E;fillColor=none;verticalAlign=top;align=left;spacingLeft=30;fontColor=#232F3E;dashed=0;labelBackgroundColor=#ffffff;container=1;pointerEvents=0;collapsible=0;recursiveResize=0;movable=1;resizable=1;rotatable=1;deletable=1;editable=1;locked=0;connectable=1;" parent="1" vertex="1">
          <mxGeometry x="103" y="-722" width="897" height="674" as="geometry" />
        </mxCell>
        <mxCell id="mW19Jw8WPf5lLDW3gT5k-2" value="東京Region" style="points=[[0,0],[0.25,0],[0.5,0],[0.75,0],[1,0],[1,0.25],[1,0.5],[1,0.75],[1,1],[0.75,1],[0.5,1],[0.25,1],[0,1],[0,0.75],[0,0.5],[0,0.25]];outlineConnect=0;gradientColor=none;html=1;whiteSpace=wrap;fontSize=12;fontStyle=0;container=1;pointerEvents=0;collapsible=0;recursiveResize=0;shape=mxgraph.aws4.group;grIcon=mxgraph.aws4.group_region;strokeColor=#147EBA;fillColor=none;verticalAlign=top;align=left;spacingLeft=30;fontColor=#147EBA;dashed=1;movable=1;resizable=1;rotatable=1;deletable=1;editable=1;locked=0;connectable=1;" parent="UEzPUAAOIrF-is8g5C7q-175" vertex="1">
          <mxGeometry x="83" y="73" width="732" height="537" as="geometry" />
        </mxCell>
        <mxCell id="mW19Jw8WPf5lLDW3gT5k-6" value="VPC" style="points=[[0,0],[0.25,0],[0.5,0],[0.75,0],[1,0],[1,0.25],[1,0.5],[1,0.75],[1,1],[0.75,1],[0.5,1],[0.25,1],[0,1],[0,0.75],[0,0.5],[0,0.25]];outlineConnect=0;gradientColor=none;html=1;whiteSpace=wrap;fontSize=12;fontStyle=0;container=1;pointerEvents=0;collapsible=0;recursiveResize=0;shape=mxgraph.aws4.group;grIcon=mxgraph.aws4.group_vpc;strokeColor=#248814;fillColor=none;verticalAlign=top;align=left;spacingLeft=30;fontColor=#AAB7B8;dashed=0;movable=0;resizable=0;rotatable=0;deletable=0;editable=0;locked=1;connectable=0;" parent="mW19Jw8WPf5lLDW3gT5k-2" vertex="1">
          <mxGeometry x="27" y="69" width="735" height="447" as="geometry" />
        </mxCell>
        <mxCell id="mW19Jw8WPf5lLDW3gT5k-7" value="Public subnet" style="points=[[0,0],[0.25,0],[0.5,0],[0.75,0],[1,0],[1,0.25],[1,0.5],[1,0.75],[1,1],[0.75,1],[0.5,1],[0.25,1],[0,1],[0,0.75],[0,0.5],[0,0.25]];outlineConnect=0;gradientColor=none;html=1;whiteSpace=wrap;fontSize=12;fontStyle=0;container=1;pointerEvents=0;collapsible=0;recursiveResize=0;shape=mxgraph.aws4.group;grIcon=mxgraph.aws4.group_security_group;grStroke=0;strokeColor=#248814;fillColor=#E9F3E6;verticalAlign=top;align=left;spacingLeft=30;fontColor=#248814;dashed=0;movable=1;resizable=1;rotatable=1;deletable=1;editable=1;locked=0;connectable=1;" parent="mW19Jw8WPf5lLDW3gT5k-2" vertex="1">
          <mxGeometry x="128.5" y="112" width="176" height="147" as="geometry" />
        </mxCell>
        <mxCell id="mW19Jw8WPf5lLDW3gT5k-27" value="EC2" style="sketch=0;points=[[0,0,0],[0.25,0,0],[0.5,0,0],[0.75,0,0],[1,0,0],[0,1,0],[0.25,1,0],[0.5,1,0],[0.75,1,0],[1,1,0],[0,0.25,0],[0,0.5,0],[0,0.75,0],[1,0.25,0],[1,0.5,0],[1,0.75,0]];outlineConnect=0;fontColor=#232F3E;gradientColor=#F78E04;gradientDirection=north;fillColor=#D05C17;strokeColor=#ffffff;dashed=0;verticalLabelPosition=bottom;verticalAlign=top;align=center;html=1;fontSize=12;fontStyle=0;aspect=fixed;shape=mxgraph.aws4.resourceIcon;resIcon=mxgraph.aws4.ec2;fontFamily=Helvetica;" parent="mW19Jw8WPf5lLDW3gT5k-7" vertex="1">
          <mxGeometry x="49" y="39" width="78" height="78" as="geometry" />
        </mxCell>
        <mxCell id="mW19Jw8WPf5lLDW3gT5k-28" value="RDS" style="sketch=0;points=[[0,0,0],[0.25,0,0],[0.5,0,0],[0.75,0,0],[1,0,0],[0,1,0],[0.25,1,0],[0.5,1,0],[0.75,1,0],[1,1,0],[0,0.25,0],[0,0.5,0],[0,0.75,0],[1,0.25,0],[1,0.5,0],[1,0.75,0]];outlineConnect=0;fontColor=#232F3E;gradientColor=#4D72F3;gradientDirection=north;fillColor=#3334B9;strokeColor=#ffffff;dashed=0;verticalLabelPosition=bottom;verticalAlign=top;align=center;html=1;fontSize=12;fontStyle=0;aspect=fixed;shape=mxgraph.aws4.resourceIcon;resIcon=mxgraph.aws4.rds;fontFamily=Helvetica;" parent="mW19Jw8WPf5lLDW3gT5k-2" vertex="1">
          <mxGeometry x="177.5" y="366" width="78" height="78" as="geometry" />
        </mxCell>
        <mxCell id="mW19Jw8WPf5lLDW3gT5k-46" value="" style="edgeStyle=orthogonalEdgeStyle;html=1;endArrow=block;elbow=vertical;startArrow=none;endFill=1;strokeColor=#545B64;rounded=0;fontFamily=Helvetica;fontSize=12;fontColor=#147EBA;entryX=0.5;entryY=0;entryDx=0;entryDy=0;entryPerimeter=0;" parent="mW19Jw8WPf5lLDW3gT5k-2" source="mW19Jw8WPf5lLDW3gT5k-27" target="mW19Jw8WPf5lLDW3gT5k-28" edge="1">
          <mxGeometry width="100" relative="1" as="geometry">
            <mxPoint x="88" y="275.63" as="sourcePoint" />
            <mxPoint x="188" y="275.63" as="targetPoint" />
          </mxGeometry>
        </mxCell>
        <mxCell id="mW19Jw8WPf5lLDW3gT5k-1" value="users" style="sketch=0;outlineConnect=0;gradientColor=none;fontColor=#545B64;strokeColor=none;fillColor=#879196;dashed=0;verticalLabelPosition=bottom;verticalAlign=top;align=center;html=1;fontSize=12;fontStyle=0;aspect=fixed;shape=mxgraph.aws4.illustration_users;pointerEvents=1" parent="1" vertex="1">
          <mxGeometry x="560" y="-817" width="50" height="50" as="geometry" />
        </mxCell>
        <mxCell id="mW19Jw8WPf5lLDW3gT5k-18" value="AZ-1c" style="fillColor=none;strokeColor=#147EBA;dashed=1;verticalAlign=top;fontStyle=0;fontColor=#147EBA;whiteSpace=wrap;html=1;movable=0;resizable=0;rotatable=0;deletable=0;editable=0;locked=1;connectable=0;" parent="1" vertex="1">
          <mxGeometry x="632" y="-606" width="264" height="505" as="geometry" />
        </mxCell>
        <mxCell id="mW19Jw8WPf5lLDW3gT5k-20" value="Public subnet" style="points=[[0,0],[0.25,0],[0.5,0],[0.75,0],[1,0],[1,0.25],[1,0.5],[1,0.75],[1,1],[0.75,1],[0.5,1],[0.25,1],[0,1],[0,0.75],[0,0.5],[0,0.25]];outlineConnect=0;gradientColor=none;html=1;whiteSpace=wrap;fontSize=12;fontStyle=0;container=1;pointerEvents=0;collapsible=0;recursiveResize=0;shape=mxgraph.aws4.group;grIcon=mxgraph.aws4.group_security_group;grStroke=0;strokeColor=#248814;fillColor=#E9F3E6;verticalAlign=top;align=left;spacingLeft=30;fontColor=#248814;dashed=0;" parent="1" vertex="1">
          <mxGeometry x="681.5" y="-528" width="161.5" height="142" as="geometry" />
        </mxCell>
        <mxCell id="mW19Jw8WPf5lLDW3gT5k-29" value="EC2" style="sketch=0;points=[[0,0,0],[0.25,0,0],[0.5,0,0],[0.75,0,0],[1,0,0],[0,1,0],[0.25,1,0],[0.5,1,0],[0.75,1,0],[1,1,0],[0,0.25,0],[0,0.5,0],[0,0.75,0],[1,0.25,0],[1,0.5,0],[1,0.75,0]];outlineConnect=0;fontColor=#232F3E;gradientColor=#F78E04;gradientDirection=north;fillColor=#D05C17;strokeColor=#ffffff;dashed=0;verticalLabelPosition=bottom;verticalAlign=top;align=center;html=1;fontSize=12;fontStyle=0;aspect=fixed;shape=mxgraph.aws4.resourceIcon;resIcon=mxgraph.aws4.ec2;fontFamily=Helvetica;" parent="1" vertex="1">
          <mxGeometry x="723.25" y="-489" width="78" height="78" as="geometry" />
        </mxCell>
        <mxCell id="mW19Jw8WPf5lLDW3gT5k-33" value="internet gateway" style="sketch=0;outlineConnect=0;fontColor=#232F3E;gradientColor=none;fillColor=#4D27AA;strokeColor=none;dashed=0;verticalLabelPosition=bottom;verticalAlign=top;align=center;html=1;fontSize=12;fontStyle=0;aspect=fixed;pointerEvents=1;shape=mxgraph.aws4.internet_gateway;fontFamily=Helvetica;" parent="1" vertex="1">
          <mxGeometry x="565" y="-592" width="40" height="40" as="geometry" />
        </mxCell>
        <mxCell id="mW19Jw8WPf5lLDW3gT5k-34" value="Application&lt;br&gt;load Balancer" style="sketch=0;outlineConnect=0;fontColor=#232F3E;gradientColor=none;fillColor=#4D27AA;strokeColor=none;dashed=0;verticalLabelPosition=bottom;verticalAlign=top;align=center;html=1;fontSize=12;fontStyle=0;aspect=fixed;pointerEvents=1;shape=mxgraph.aws4.application_load_balancer;fontFamily=Helvetica;" parent="1" vertex="1">
          <mxGeometry x="565" y="-475" width="40" height="40" as="geometry" />
        </mxCell>
        <mxCell id="mW19Jw8WPf5lLDW3gT5k-41" value="" style="edgeStyle=orthogonalEdgeStyle;html=1;endArrow=block;elbow=vertical;startArrow=none;endFill=1;strokeColor=#545B64;rounded=0;fontFamily=Helvetica;fontSize=12;fontColor=#147EBA;verticalAlign=middle;horizontal=1;" parent="1" target="mW19Jw8WPf5lLDW3gT5k-33" edge="1" source="mW19Jw8WPf5lLDW3gT5k-1">
          <mxGeometry width="100" relative="1" as="geometry">
            <mxPoint x="584" y="-724" as="sourcePoint" />
            <mxPoint x="522" y="-733" as="targetPoint" />
          </mxGeometry>
        </mxCell>
        <mxCell id="mW19Jw8WPf5lLDW3gT5k-43" value="" style="edgeStyle=orthogonalEdgeStyle;html=1;endArrow=block;elbow=vertical;startArrow=none;endFill=1;strokeColor=#545B64;rounded=0;fontFamily=Helvetica;fontSize=12;fontColor=#147EBA;verticalAlign=middle;horizontal=1;" parent="1" target="mW19Jw8WPf5lLDW3gT5k-34" edge="1">
          <mxGeometry width="100" relative="1" as="geometry">
            <mxPoint x="585" y="-552" as="sourcePoint" />
            <mxPoint x="586" y="-420" as="targetPoint" />
          </mxGeometry>
        </mxCell>
        <mxCell id="mW19Jw8WPf5lLDW3gT5k-44" value="" style="edgeStyle=orthogonalEdgeStyle;html=1;endArrow=none;elbow=vertical;startArrow=block;startFill=1;strokeColor=#545B64;rounded=0;fontFamily=Helvetica;fontSize=12;fontColor=#147EBA;" parent="1" edge="1">
          <mxGeometry width="100" relative="1" as="geometry">
            <mxPoint x="448" y="-455" as="sourcePoint" />
            <mxPoint x="565" y="-455.37" as="targetPoint" />
          </mxGeometry>
        </mxCell>
        <mxCell id="mW19Jw8WPf5lLDW3gT5k-45" value="" style="edgeStyle=orthogonalEdgeStyle;html=1;endArrow=block;elbow=vertical;startArrow=none;endFill=1;strokeColor=#545B64;rounded=0;fontFamily=Helvetica;fontSize=12;fontColor=#147EBA;" parent="1" target="mW19Jw8WPf5lLDW3gT5k-29" edge="1">
          <mxGeometry width="100" relative="1" as="geometry">
            <mxPoint x="602" y="-450" as="sourcePoint" />
            <mxPoint x="702" y="-455.37" as="targetPoint" />
            <Array as="points">
              <mxPoint x="602" y="-450" />
            </Array>
          </mxGeometry>
        </mxCell>
        <mxCell id="S90KqBL2kYxt-JUQE2gK-5" value="developer" style="sketch=0;outlineConnect=0;fontColor=#232F3E;gradientColor=none;fillColor=#232F3D;strokeColor=none;dashed=0;verticalLabelPosition=bottom;verticalAlign=top;align=center;html=1;fontSize=12;fontStyle=0;aspect=fixed;pointerEvents=1;shape=mxgraph.aws4.user;" vertex="1" parent="1">
          <mxGeometry x="13" y="-806" width="78" height="78" as="geometry" />
        </mxCell>
        <mxCell id="S90KqBL2kYxt-JUQE2gK-6" value="" style="edgeStyle=orthogonalEdgeStyle;html=1;endArrow=block;elbow=vertical;startArrow=none;endFill=1;strokeColor=#545B64;rounded=0;entryX=0;entryY=0.5;entryDx=0;entryDy=0;entryPerimeter=0;" edge="1" parent="1" target="mW19Jw8WPf5lLDW3gT5k-27">
          <mxGeometry width="100" relative="1" as="geometry">
            <mxPoint x="51" y="-728" as="sourcePoint" />
            <mxPoint x="51" y="-455" as="targetPoint" />
            <Array as="points">
              <mxPoint x="51" y="-458" />
              <mxPoint x="52" y="-458" />
            </Array>
          </mxGeometry>
        </mxCell>
        <mxCell id="S90KqBL2kYxt-JUQE2gK-7" value="CI/CD" style="text;strokeColor=none;align=center;fillColor=none;html=1;verticalAlign=middle;whiteSpace=wrap;rounded=0;" vertex="1" parent="1">
          <mxGeometry x="39" y="-558" width="60" height="30" as="geometry" />
        </mxCell>
        <mxCell id="S90KqBL2kYxt-JUQE2gK-8" value="GitHub Actions" style="verticalLabelPosition=bottom;html=1;verticalAlign=top;align=center;strokeColor=none;fillColor=#00BEF2;shape=mxgraph.azure.github_code;pointerEvents=1;" vertex="1" parent="1">
          <mxGeometry x="31" y="-606" width="37" height="36" as="geometry" />
        </mxCell>
        <mxCell id="S90KqBL2kYxt-JUQE2gK-3" value="Amazon Route 53" style="sketch=0;outlineConnect=0;fontColor=#232F3E;gradientColor=none;strokeColor=#ffffff;fillColor=#232F3E;dashed=0;verticalLabelPosition=middle;verticalAlign=bottom;align=center;html=1;whiteSpace=wrap;fontSize=10;fontStyle=1;spacing=3;shape=mxgraph.aws4.productIcon;prIcon=mxgraph.aws4.route_53;" vertex="1" parent="1">
          <mxGeometry x="131" y="-821" width="69" height="92" as="geometry" />
        </mxCell>
        <mxCell id="S90KqBL2kYxt-JUQE2gK-11" value="&lt;a style=&quot;background-color: rgb(255, 255, 255); text-decoration-line: none; font-weight: 700; font-family: &amp;quot;Amazon Ember&amp;quot;, &amp;quot;Helvetica Neue&amp;quot;, Roboto, Arial, sans-serif; text-align: start; font-size: 9px;&quot; aria-current=&quot;page&quot; class=&quot;awsui-side-navigation__header-link&quot; href=&quot;https://ap-northeast-1.console.aws.amazon.com/acm/home?region=ap-northeast-1#/welcome&quot;&gt;Certificate Manager (ACM)&lt;/a&gt;" style="sketch=0;points=[[0,0,0],[0.25,0,0],[0.5,0,0],[0.75,0,0],[1,0,0],[0,1,0],[0.25,1,0],[0.5,1,0],[0.75,1,0],[1,1,0],[0,0.25,0],[0,0.5,0],[0,0.75,0],[1,0.25,0],[1,0.5,0],[1,0.75,0]];outlineConnect=0;fontColor=#232F3E;gradientColor=#F54749;gradientDirection=north;fillColor=#C7131F;strokeColor=#ffffff;dashed=0;verticalLabelPosition=bottom;verticalAlign=top;align=center;html=1;fontSize=12;fontStyle=0;aspect=fixed;shape=mxgraph.aws4.resourceIcon;resIcon=mxgraph.aws4.certificate_manager_3;" vertex="1" parent="1">
          <mxGeometry x="236" y="-821" width="65.5" height="65.5" as="geometry" />
        </mxCell>
      </root>
    </mxGraphModel>
  </diagram>
</mxfile>
